<svg width="480" height="441" viewBox="0 0 480 441" fill="none" xmlns="http://www.w3.org/2000/svg">
<rect x="125" y="18" width="219" height="406" rx="29" fill="#333333" stroke="#333333" stroke-width="2"/>
<rect x="131.727" y="25.4189" width="205.548" height="391.164" rx="24" fill="#EEF5FB" stroke="#333333" stroke-width="2"/>
<rect x="201.83" y="18.0586" width="65.3391" height="27.5532" rx="6.38294" fill="#333333"/>
<path d="M102.75 161.928H256C266.631 161.928 275.25 170.546 275.25 181.178V205.178C275.25 215.809 266.631 224.428 256 224.428H122C111.369 224.428 102.75 215.809 102.75 205.178V161.928Z" fill="white" stroke="#333333" stroke-width="1.5"/>
<path d="M146.493 191.624C146.493 198.728 140.773 204.478 133.729 204.478C126.684 204.478 120.965 198.728 120.965 191.624C120.965 184.521 126.684 178.771 133.729 178.771C140.773 178.771 146.493 184.521 146.493 191.624Z" fill="#CEE6A5" stroke="#333333" stroke-width="1.5"/>
<line x1="0.75" y1="-0.75" x2="5.1199" y2="-0.75" transform="matrix(0.701498 0.712672 -0.533017 0.846105 127.879 192.142)" stroke="#333333" stroke-width="1.5" stroke-linecap="round"/>
<line x1="0.75" y1="-0.75" x2="11.2304" y2="-0.75" transform="matrix(0.618668 -0.785653 0.618668 0.785653 131.998 196.324)" stroke="#333333" stroke-width="1.5" stroke-linecap="round"/>
<path d="M166.464 192.161C166.464 193.206 166.289 194.119 165.937 194.9C165.585 195.676 165.087 196.27 164.443 196.68C163.798 197.09 163.046 197.295 162.187 197.295C161.347 197.295 160.603 197.09 159.953 196.68C159.304 196.265 158.798 195.676 158.437 194.915C158.081 194.148 157.897 193.262 157.888 192.256V191.487C157.888 190.461 158.066 189.556 158.422 188.77C158.779 187.983 159.282 187.383 159.931 186.968C160.585 186.548 161.333 186.338 162.172 186.338C163.027 186.338 163.779 186.545 164.428 186.96C165.083 187.371 165.585 187.969 165.937 188.755C166.289 189.536 166.464 190.447 166.464 191.487V192.161ZM165.065 191.472C165.065 190.208 164.812 189.238 164.304 188.564C163.796 187.886 163.085 187.546 162.172 187.546C161.284 187.546 160.583 187.886 160.07 188.564C159.562 189.238 159.301 190.176 159.287 191.377V192.161C159.287 193.386 159.543 194.351 160.056 195.054C160.573 195.752 161.284 196.101 162.187 196.101C163.095 196.101 163.798 195.771 164.296 195.112C164.794 194.448 165.051 193.499 165.065 192.263V191.472ZM174.893 197.148H173.538V190.344H169.891V197.148H168.529V189.224H174.893V197.148ZM183.615 189.224V197.148H182.253V190.344H179.558L179.396 193.311C179.308 194.673 179.079 195.647 178.708 196.233C178.342 196.819 177.758 197.124 176.957 197.148H176.415V195.955L176.804 195.925C177.243 195.876 177.558 195.623 177.748 195.164C177.939 194.705 178.061 193.855 178.115 192.615L178.261 189.224H183.615ZM190.733 197.148C190.655 196.992 190.591 196.714 190.543 196.313C189.913 196.968 189.161 197.295 188.287 197.295C187.505 197.295 186.863 197.075 186.36 196.636C185.862 196.191 185.613 195.63 185.613 194.951C185.613 194.126 185.926 193.486 186.551 193.032C187.181 192.573 188.065 192.344 189.202 192.344H190.521V191.721C190.521 191.248 190.379 190.872 190.096 190.593C189.813 190.31 189.395 190.168 188.843 190.168C188.36 190.168 187.955 190.291 187.628 190.535C187.3 190.779 187.137 191.074 187.137 191.421H185.775C185.775 191.025 185.914 190.645 186.192 190.278C186.475 189.907 186.856 189.614 187.335 189.399C187.818 189.185 188.348 189.077 188.924 189.077C189.837 189.077 190.552 189.307 191.07 189.766C191.587 190.22 191.856 190.847 191.876 191.648V195.295C191.876 196.023 191.968 196.602 192.154 197.031V197.148H190.733ZM188.484 196.116C188.909 196.116 189.312 196.006 189.693 195.786C190.074 195.566 190.35 195.281 190.521 194.929V193.303H189.459C187.798 193.303 186.968 193.789 186.968 194.761C186.968 195.186 187.11 195.518 187.393 195.757C187.676 195.996 188.04 196.116 188.484 196.116ZM200.033 197.148H198.671V194.277C198.075 194.434 197.465 194.512 196.84 194.512C195.849 194.512 195.092 194.258 194.57 193.75C194.052 193.242 193.788 192.52 193.779 191.582V189.216H195.134V191.626C195.158 192.808 195.727 193.398 196.84 193.398C197.465 193.398 198.075 193.32 198.671 193.164V189.224H200.033V197.148ZM205.547 197.295C204.473 197.295 203.599 196.943 202.925 196.24C202.251 195.532 201.915 194.587 201.915 193.406V193.157C201.915 192.371 202.063 191.67 202.361 191.055C202.664 190.435 203.084 189.951 203.621 189.604C204.163 189.253 204.749 189.077 205.379 189.077C206.409 189.077 207.21 189.417 207.781 190.095C208.353 190.774 208.638 191.746 208.638 193.01V193.574H203.27C203.289 194.355 203.516 194.988 203.951 195.471C204.39 195.95 204.947 196.189 205.621 196.189C206.099 196.189 206.504 196.091 206.836 195.896C207.168 195.701 207.459 195.442 207.708 195.12L208.536 195.764C207.872 196.785 206.875 197.295 205.547 197.295ZM205.379 190.19C204.832 190.19 204.373 190.391 204.002 190.791C203.631 191.187 203.401 191.743 203.313 192.461H207.283V192.358C207.244 191.67 207.059 191.138 206.727 190.762C206.395 190.381 205.945 190.19 205.379 190.19ZM216.737 197.148H215.383V193.765H211.742V197.148H210.38V189.224H211.742V192.659H215.383V189.224H216.737V197.148ZM218.611 193.113C218.611 192.336 218.763 191.638 219.065 191.018C219.373 190.398 219.798 189.919 220.34 189.583C220.887 189.246 221.509 189.077 222.207 189.077C223.287 189.077 224.158 189.451 224.822 190.198C225.491 190.945 225.826 191.938 225.826 193.179V193.274C225.826 194.045 225.677 194.739 225.379 195.354C225.086 195.964 224.663 196.44 224.112 196.782C223.565 197.124 222.935 197.295 222.222 197.295C221.148 197.295 220.276 196.921 219.607 196.174C218.943 195.427 218.611 194.438 218.611 193.208V193.113ZM219.974 193.274C219.974 194.153 220.176 194.858 220.581 195.391C220.992 195.923 221.538 196.189 222.222 196.189C222.911 196.189 223.457 195.92 223.863 195.383C224.268 194.841 224.471 194.084 224.471 193.113C224.471 192.244 224.263 191.541 223.848 191.003C223.438 190.461 222.891 190.19 222.207 190.19C221.538 190.19 220.999 190.457 220.589 190.989C220.179 191.521 219.974 192.283 219.974 193.274Z" fill="#333333"/>
<path d="M102.75 316.223H322C332.631 316.223 341.25 324.841 341.25 335.473V359.473C341.25 370.104 332.631 378.723 322 378.723H122C111.369 378.723 102.75 370.104 102.75 359.473V316.223Z" fill="white" stroke="#333333" stroke-width="1.5"/>
<path d="M123.846 344.014C123.846 343.448 123.638 342.999 123.223 342.667C122.813 342.33 122.234 342.161 121.487 342.161C120.862 342.161 120.337 342.334 119.913 342.681C119.493 343.023 119.283 343.448 119.283 343.956H117.876C117.876 343.389 118.03 342.881 118.338 342.432C118.65 341.983 119.085 341.634 119.642 341.385C120.198 341.131 120.813 341.004 121.487 341.004C122.679 341.004 123.604 341.272 124.263 341.81C124.922 342.342 125.252 343.084 125.252 344.036C125.252 344.529 125.101 344.979 124.798 345.384C124.495 345.789 124.073 346.109 123.531 346.343C124.786 346.763 125.413 347.596 125.413 348.841C125.413 349.798 125.057 350.557 124.344 351.119C123.631 351.68 122.679 351.961 121.487 351.961C120.779 351.961 120.135 351.836 119.554 351.587C118.978 351.333 118.528 350.975 118.206 350.511C117.884 350.047 117.723 349.495 117.723 348.855H119.129C119.129 349.417 119.351 349.886 119.795 350.262C120.24 350.633 120.804 350.818 121.487 350.818C122.254 350.818 122.864 350.64 123.318 350.284C123.777 349.927 124.007 349.456 124.007 348.87C124.007 347.62 123.233 346.983 121.685 346.958H120.367V345.801H121.678C122.391 345.787 122.93 345.625 123.296 345.318C123.663 345.01 123.846 344.576 123.846 344.014ZM132.011 351.814C131.933 351.658 131.869 351.38 131.821 350.979C131.191 351.634 130.439 351.961 129.565 351.961C128.783 351.961 128.141 351.741 127.638 351.302C127.14 350.857 126.891 350.296 126.891 349.617C126.891 348.792 127.204 348.152 127.829 347.698C128.459 347.239 129.342 347.01 130.48 347.01H131.799V346.387C131.799 345.914 131.657 345.538 131.374 345.259C131.091 344.976 130.673 344.834 130.121 344.834C129.638 344.834 129.233 344.957 128.905 345.201C128.578 345.445 128.415 345.74 128.415 346.087H127.052C127.052 345.691 127.192 345.311 127.47 344.944C127.753 344.573 128.134 344.28 128.613 344.065C129.096 343.851 129.626 343.743 130.202 343.743C131.115 343.743 131.83 343.973 132.348 344.432C132.865 344.886 133.134 345.513 133.154 346.314V349.961C133.154 350.689 133.246 351.268 133.432 351.697V351.814H132.011ZM129.762 350.782C130.187 350.782 130.59 350.672 130.971 350.452C131.352 350.232 131.628 349.947 131.799 349.595V347.969H130.737C129.076 347.969 128.246 348.455 128.246 349.427C128.246 349.852 128.388 350.184 128.671 350.423C128.954 350.662 129.318 350.782 129.762 350.782ZM141.311 351.814H139.949V348.943C139.353 349.1 138.743 349.178 138.118 349.178C137.127 349.178 136.37 348.924 135.848 348.416C135.33 347.908 135.066 347.186 135.057 346.248V343.882H136.412V346.292C136.436 347.474 137.005 348.064 138.118 348.064C138.743 348.064 139.353 347.986 139.949 347.83V343.89H141.311V351.814ZM148.664 343.89H150.019V351.814H148.664V346.036L145.009 351.814H143.654V343.89H145.009V349.676L148.664 343.89ZM155.423 350.855C155.906 350.855 156.328 350.708 156.69 350.416C157.051 350.123 157.251 349.756 157.29 349.317H158.572C158.548 349.771 158.391 350.203 158.103 350.613C157.815 351.023 157.429 351.351 156.946 351.595C156.468 351.839 155.96 351.961 155.423 351.961C154.344 351.961 153.484 351.602 152.845 350.884C152.21 350.162 151.892 349.175 151.892 347.925V347.698C151.892 346.927 152.034 346.241 152.317 345.64C152.6 345.04 153.006 344.573 153.533 344.241C154.065 343.909 154.693 343.743 155.415 343.743C156.304 343.743 157.041 344.009 157.627 344.542C158.218 345.074 158.533 345.765 158.572 346.614H157.29C157.251 346.102 157.056 345.682 156.704 345.354C156.358 345.022 155.928 344.856 155.415 344.856C154.727 344.856 154.192 345.105 153.811 345.604C153.435 346.097 153.247 346.812 153.247 347.75V348.006C153.247 348.919 153.435 349.622 153.811 350.115C154.187 350.608 154.724 350.855 155.423 350.855ZM166.642 343.89V351.814H165.28V345.01H162.584L162.423 347.977C162.335 349.339 162.106 350.313 161.735 350.899C161.369 351.485 160.785 351.79 159.984 351.814H159.442V350.621L159.831 350.591C160.27 350.542 160.585 350.289 160.775 349.83C160.966 349.371 161.088 348.521 161.142 347.281L161.288 343.89H166.642ZM172.156 351.961C171.082 351.961 170.208 351.609 169.534 350.906C168.86 350.198 168.523 349.253 168.523 348.072V347.823C168.523 347.037 168.672 346.336 168.97 345.721C169.273 345.101 169.693 344.617 170.23 344.271C170.772 343.919 171.358 343.743 171.987 343.743C173.018 343.743 173.819 344.083 174.39 344.761C174.961 345.44 175.247 346.412 175.247 347.676V348.24H169.878C169.898 349.021 170.125 349.654 170.559 350.137C170.999 350.616 171.555 350.855 172.229 350.855C172.708 350.855 173.113 350.757 173.445 350.562C173.777 350.367 174.068 350.108 174.317 349.786L175.144 350.43C174.48 351.451 173.484 351.961 172.156 351.961ZM171.987 344.856C171.441 344.856 170.982 345.057 170.611 345.457C170.239 345.853 170.01 346.409 169.922 347.127H173.892V347.024C173.853 346.336 173.667 345.804 173.335 345.428C173.003 345.047 172.554 344.856 171.987 344.856ZM183.346 351.814H181.991V348.431H178.351V351.814H176.989V343.89H178.351V347.325H181.991V343.89H183.346V351.814ZM185.22 347.779C185.22 347.002 185.371 346.304 185.674 345.684C185.982 345.064 186.406 344.585 186.948 344.249C187.495 343.912 188.118 343.743 188.816 343.743C189.895 343.743 190.767 344.117 191.431 344.864C192.1 345.611 192.434 346.604 192.434 347.845V347.94C192.434 348.711 192.285 349.405 191.987 350.02C191.694 350.63 191.272 351.106 190.72 351.448C190.173 351.79 189.544 351.961 188.831 351.961C187.756 351.961 186.885 351.587 186.216 350.84C185.552 350.093 185.22 349.104 185.22 347.874V347.779ZM186.582 347.94C186.582 348.819 186.785 349.524 187.19 350.057C187.6 350.589 188.147 350.855 188.831 350.855C189.519 350.855 190.066 350.586 190.471 350.049C190.877 349.507 191.079 348.75 191.079 347.779C191.079 346.91 190.872 346.207 190.457 345.669C190.046 345.127 189.5 344.856 188.816 344.856C188.147 344.856 187.608 345.123 187.197 345.655C186.787 346.187 186.582 346.949 186.582 347.94ZM198.079 351.814V343.89H201.169C202.224 343.89 203.032 344.075 203.594 344.446C204.16 344.812 204.443 345.352 204.443 346.065C204.443 346.431 204.333 346.763 204.114 347.061C203.894 347.354 203.569 347.579 203.14 347.735C203.618 347.847 204.001 348.067 204.29 348.394C204.583 348.721 204.729 349.112 204.729 349.566C204.729 350.293 204.46 350.85 203.923 351.236C203.391 351.622 202.637 351.814 201.66 351.814H198.079ZM199.434 348.335V350.723H201.675C202.241 350.723 202.664 350.618 202.942 350.408C203.225 350.198 203.367 349.903 203.367 349.522C203.367 348.731 202.786 348.335 201.624 348.335H199.434ZM199.434 347.251H201.184C202.454 347.251 203.088 346.88 203.088 346.138C203.088 345.396 202.488 345.013 201.287 344.988H199.434V347.251ZM206.215 347.779C206.215 347.002 206.366 346.304 206.669 345.684C206.976 345.064 207.401 344.585 207.943 344.249C208.49 343.912 209.113 343.743 209.811 343.743C210.89 343.743 211.761 344.117 212.425 344.864C213.094 345.611 213.429 346.604 213.429 347.845V347.94C213.429 348.711 213.28 349.405 212.982 350.02C212.689 350.63 212.267 351.106 211.715 351.448C211.168 351.79 210.538 351.961 209.825 351.961C208.751 351.961 207.88 351.587 207.211 350.84C206.547 350.093 206.215 349.104 206.215 347.874V347.779ZM207.577 347.94C207.577 348.819 207.779 349.524 208.185 350.057C208.595 350.589 209.142 350.855 209.825 350.855C210.514 350.855 211.061 350.586 211.466 350.049C211.871 349.507 212.074 348.75 212.074 347.779C212.074 346.91 211.866 346.207 211.451 345.669C211.041 345.127 210.494 344.856 209.811 344.856C209.142 344.856 208.602 345.123 208.192 345.655C207.782 346.187 207.577 346.949 207.577 347.94ZM219.536 346.058C219.536 345.687 219.394 345.394 219.111 345.179C218.828 344.959 218.44 344.849 217.947 344.849C217.468 344.849 217.068 344.974 216.746 345.223C216.428 345.472 216.269 345.765 216.269 346.102H214.922C214.922 345.413 215.21 344.849 215.786 344.41C216.362 343.97 217.082 343.75 217.947 343.75C218.874 343.75 219.597 343.951 220.115 344.351C220.632 344.747 220.891 345.313 220.891 346.05C220.891 346.407 220.784 346.734 220.569 347.032C220.354 347.33 220.049 347.566 219.653 347.742C220.576 348.055 221.037 348.67 221.037 349.588C221.037 350.315 220.757 350.892 220.195 351.316C219.634 351.741 218.884 351.954 217.947 351.954C217.034 351.954 216.279 351.731 215.683 351.287C215.093 350.838 214.797 350.232 214.797 349.471H216.145C216.145 349.856 216.316 350.188 216.658 350.467C217.004 350.74 217.434 350.877 217.947 350.877C218.464 350.877 218.882 350.757 219.199 350.518C219.517 350.279 219.675 349.969 219.675 349.588C219.675 349.144 219.541 348.826 219.272 348.636C219.009 348.44 218.596 348.343 218.035 348.343H216.68V347.2H218.152C219.075 347.176 219.536 346.795 219.536 346.058ZM229.32 351.814H227.965V348.431H224.325V351.814H222.963V343.89H224.325V347.325H227.965V343.89H229.32V351.814ZM236.445 351.814C236.367 351.658 236.304 351.38 236.255 350.979C235.625 351.634 234.873 351.961 233.999 351.961C233.218 351.961 232.575 351.741 232.073 351.302C231.575 350.857 231.325 350.296 231.325 349.617C231.325 348.792 231.638 348.152 232.263 347.698C232.893 347.239 233.777 347.01 234.914 347.01H236.233V346.387C236.233 345.914 236.091 345.538 235.808 345.259C235.525 344.976 235.107 344.834 234.555 344.834C234.072 344.834 233.667 344.957 233.34 345.201C233.012 345.445 232.849 345.74 232.849 346.087H231.487C231.487 345.691 231.626 345.311 231.904 344.944C232.187 344.573 232.568 344.28 233.047 344.065C233.53 343.851 234.06 343.743 234.636 343.743C235.549 343.743 236.264 343.973 236.782 344.432C237.3 344.886 237.568 345.513 237.588 346.314V349.961C237.588 350.689 237.68 351.268 237.866 351.697V351.814H236.445ZM234.197 350.782C234.621 350.782 235.024 350.672 235.405 350.452C235.786 350.232 236.062 349.947 236.233 349.595V347.969H235.171C233.511 347.969 232.68 348.455 232.68 349.427C232.68 349.852 232.822 350.184 233.105 350.423C233.388 350.662 233.752 350.782 234.197 350.782ZM244.881 345.01H241.227V351.814H239.864V343.89H244.881V345.01ZM252.805 347.94C252.805 349.146 252.529 350.118 251.977 350.855C251.425 351.592 250.678 351.961 249.736 351.961C248.774 351.961 248.017 351.656 247.466 351.045V354.861H246.111V343.89H247.348L247.414 344.769C247.966 344.085 248.733 343.743 249.714 343.743C250.666 343.743 251.418 344.102 251.97 344.82C252.527 345.538 252.805 346.536 252.805 347.815V347.94ZM251.45 347.786C251.45 346.893 251.259 346.187 250.879 345.669C250.498 345.152 249.975 344.893 249.311 344.893C248.491 344.893 247.876 345.257 247.466 345.984V349.771C247.871 350.494 248.491 350.855 249.326 350.855C249.975 350.855 250.49 350.599 250.871 350.086C251.257 349.568 251.45 348.802 251.45 347.786ZM259.476 351.814C259.398 351.658 259.334 351.38 259.286 350.979C258.656 351.634 257.904 351.961 257.03 351.961C256.248 351.961 255.606 351.741 255.103 351.302C254.605 350.857 254.356 350.296 254.356 349.617C254.356 348.792 254.669 348.152 255.294 347.698C255.924 347.239 256.808 347.01 257.945 347.01H259.264V346.387C259.264 345.914 259.122 345.538 258.839 345.259C258.556 344.976 258.138 344.834 257.586 344.834C257.103 344.834 256.698 344.957 256.371 345.201C256.043 345.445 255.88 345.74 255.88 346.087H254.517C254.517 345.691 254.657 345.311 254.935 344.944C255.218 344.573 255.599 344.28 256.078 344.065C256.561 343.851 257.091 343.743 257.667 343.743C258.58 343.743 259.295 343.973 259.813 344.432C260.33 344.886 260.599 345.513 260.619 346.314V349.961C260.619 350.689 260.711 351.268 260.897 351.697V351.814H259.476ZM257.227 350.782C257.652 350.782 258.055 350.672 258.436 350.452C258.817 350.232 259.093 349.947 259.264 349.595V347.969H258.202C256.541 347.969 255.711 348.455 255.711 349.427C255.711 349.852 255.853 350.184 256.136 350.423C256.419 350.662 256.783 350.782 257.227 350.782ZM269.113 348.372H268.161V351.814H266.806V348.372H265.854L263.635 351.814H261.921L264.755 347.713L262.192 343.89H263.833L265.876 347.171H266.806V343.89H268.161V347.171H269.084L271.142 343.89H272.783L270.212 347.72L273.046 351.814H271.333L269.113 348.372ZM274.261 350.708L274.73 350.13C275.257 349.446 275.557 348.421 275.631 347.054L275.755 343.89H280.86V350.708H281.878V354.144H280.523V351.814H274.993V354.144H273.638L273.646 350.708H274.261ZM275.865 350.708H279.505V345.142H277.066L276.986 347.032C276.903 348.609 276.529 349.834 275.865 350.708ZM286.718 351.961C285.644 351.961 284.77 351.609 284.096 350.906C283.422 350.198 283.085 349.253 283.085 348.072V347.823C283.085 347.037 283.234 346.336 283.532 345.721C283.835 345.101 284.255 344.617 284.792 344.271C285.334 343.919 285.92 343.743 286.55 343.743C287.58 343.743 288.381 344.083 288.952 344.761C289.523 345.44 289.809 346.412 289.809 347.676V348.24H284.44C284.46 349.021 284.687 349.654 285.122 350.137C285.561 350.616 286.118 350.855 286.792 350.855C287.27 350.855 287.675 350.757 288.007 350.562C288.339 350.367 288.63 350.108 288.879 349.786L289.707 350.43C289.042 351.451 288.046 351.961 286.718 351.961ZM286.55 344.856C286.003 344.856 285.544 345.057 285.173 345.457C284.802 345.853 284.572 346.409 284.484 347.127H288.454V347.024C288.415 346.336 288.229 345.804 287.897 345.428C287.565 345.047 287.116 344.856 286.55 344.856ZM297.908 351.814H296.553V348.431H292.913V351.814H291.551V343.89H292.913V347.325H296.553V343.89H297.908V351.814ZM305.268 343.89H306.623V351.814H305.268V346.036L301.613 351.814H300.258V343.89H301.613V349.676L305.268 343.89ZM312.137 351.961C311.063 351.961 310.189 351.609 309.515 350.906C308.841 350.198 308.504 349.253 308.504 348.072V347.823C308.504 347.037 308.653 346.336 308.951 345.721C309.254 345.101 309.673 344.617 310.211 344.271C310.753 343.919 311.338 343.743 311.968 343.743C312.999 343.743 313.799 344.083 314.371 344.761C314.942 345.44 315.228 346.412 315.228 347.676V348.24H309.859C309.879 349.021 310.106 349.654 310.54 350.137C310.98 350.616 311.536 350.855 312.21 350.855C312.689 350.855 313.094 350.757 313.426 350.562C313.758 350.367 314.048 350.108 314.297 349.786L315.125 350.43C314.461 351.451 313.465 351.961 312.137 351.961ZM311.968 344.856C311.421 344.856 310.962 345.057 310.591 345.457C310.22 345.853 309.991 346.409 309.903 347.127H313.873V347.024C313.834 346.336 313.648 345.804 313.316 345.428C312.984 345.047 312.535 344.856 311.968 344.856Z" fill="#333333"/>
<path d="M341.124 319.5C341.124 328.29 333.631 335.46 324.332 335.46C315.033 335.46 307.54 328.29 307.54 319.5C307.54 310.71 315.033 303.54 324.332 303.54C333.631 303.54 341.124 310.71 341.124 319.5Z" fill="#FFDC64" stroke="#333333" stroke-width="1.08025"/>
<path d="M326.454 324.011H322.622V326.907H320.438V324.011H318.07V322.346H320.438V320.903H318.07V319.25H320.438V311.571H326.579C328.364 311.571 329.778 311.989 330.823 312.825C331.867 313.66 332.389 314.791 332.389 316.216C332.389 317.712 331.886 318.867 330.88 319.682C329.881 320.489 328.459 320.896 326.614 320.903H322.622V322.346H326.454V324.011ZM322.622 319.25H326.579C327.761 319.25 328.661 318.993 329.279 318.481C329.896 317.968 330.205 317.22 330.205 316.237C330.205 315.346 329.885 314.626 329.244 314.078C328.604 313.523 327.738 313.242 326.648 313.235H322.622V319.25Z" fill="#333333"/>
<circle cx="350.257" cy="344.258" r="11.2617" transform="rotate(19.8622 350.257 344.258)" fill="#FFDC64" stroke="#333333" stroke-width="1.31272"/>
<path d="M350.767 347.14L348.29 346.244L347.579 348.212L346.166 347.702L346.877 345.734L345.346 345.181L345.754 344.05L347.285 344.604L347.639 343.623L346.108 343.07L346.514 341.947L348.045 342.5L349.93 337.284L353.902 338.718C355.055 339.135 355.868 339.75 356.338 340.561C356.809 341.373 356.869 342.263 356.519 343.231C356.152 344.247 355.543 344.915 354.692 345.233C353.848 345.548 352.829 345.492 351.634 345.066L349.052 344.134L348.698 345.114L351.176 346.009L350.767 347.14ZM349.458 343.01L352.017 343.935C352.782 344.211 353.426 344.247 353.952 344.043C354.477 343.839 354.86 343.403 355.101 342.735C355.32 342.13 355.29 341.566 355.01 341.044C354.732 340.518 354.241 340.125 353.538 339.865L350.934 338.924L349.458 343.01Z" fill="#333333"/>
<circle cx="411.176" cy="68.1758" r="26.25" fill="#BDB4F3" stroke="#333333" stroke-width="1.5"/>
<circle cx="411.323" cy="72.1103" r="15.25" transform="rotate(26.9242 411.323 72.1103)" fill="#F5DFCF" stroke="#333333" stroke-width="1.5"/>
<path d="M415.708 74.9785C415.708 77.4856 413.675 79.5179 411.168 79.5179C408.661 79.5179 406.629 77.4856 406.629 74.9785" stroke="#333333" stroke-width="1.5"/>
<path d="M395.413 67.2019C395.226 67.2029 395.041 67.1644 394.87 67.089C394.698 67.0137 394.545 66.903 394.419 66.7644C394.293 66.6257 394.198 66.4621 394.139 66.2842C394.081 66.1063 394.06 65.918 394.079 65.7317C394.464 61.3539 396.474 57.2792 399.713 54.311C402.952 51.3427 407.185 49.6963 411.578 49.6963C415.97 49.6963 420.203 51.3427 423.443 54.311C426.682 57.2792 428.692 61.3539 429.077 65.7317C429.096 65.918 429.075 66.1063 429.017 66.2842C428.958 66.4621 428.863 66.6257 428.737 66.7644C428.611 66.903 428.458 67.0137 428.286 67.089C428.115 67.1644 427.93 67.2029 427.742 67.2019H395.413Z" fill="white" stroke="#333333" stroke-width="1.5" stroke-linecap="round" stroke-linejoin="round"/>
<path d="M405.924 67.2013C405.924 52.9433 405.427 46.6064 411.578 46.6064C417.728 46.6064 417.232 52.9433 417.232 67.2013" fill="white"/>
<path d="M405.924 67.2013C405.924 52.9433 405.427 46.6064 411.578 46.6064C417.728 46.6064 417.232 52.9433 417.232 67.2013" stroke="#333333" stroke-width="1.5" stroke-linecap="round" stroke-linejoin="round"/>
<path d="M394.027 71.8344C393.824 71.8349 393.622 71.8134 393.435 71.7713C393.249 71.7292 393.082 71.6674 392.945 71.5899C392.808 71.5124 392.704 71.421 392.641 71.3215C392.577 71.2221 392.555 71.1169 392.575 71.0128C392.641 71.3215 391.78 66.2893 395.305 64.6306C398.83 62.9719 406.838 63.0816 411.618 63.0816C416.398 63.0816 424.468 62.9719 427.993 64.6306C431.518 66.2893 430.64 70.9087 430.661 71.0128C430.681 71.1169 430.659 71.2221 430.596 71.3215C430.532 71.421 430.428 71.5124 430.291 71.5899C430.154 71.6674 429.987 71.7292 429.801 71.7713C429.614 71.8134 429.412 71.8349 429.209 71.8344H394.027Z" fill="white" stroke="#333333" stroke-width="1.5" stroke-linecap="round" stroke-linejoin="round"/>
<path d="M374.25 71.75H190C179.369 71.75 170.75 80.3685 170.75 91V115C170.75 125.631 179.369 134.25 190 134.25H355C365.631 134.25 374.25 125.631 374.25 115V71.75Z" fill="white" stroke="#333333" stroke-width="1.5"/>
<path d="M291.566 92.7734L296.677 92.7734" stroke="#333333" stroke-width="1.13161" stroke-linecap="round" stroke-linejoin="round"/>
<path d="M298.521 87.6641L318.82 87.6641L318.82 97.8846L298.521 97.8846C298.521 97.8846 296.676 96.4272 296.676 92.7743C296.676 88.9094 298.521 87.6641 298.521 87.6641Z" fill="#CCB39B" stroke="#333333" stroke-width="1.13161"/>
<path d="M305.902 85.96L332.448 85.96L332.448 97.8839L305.902 97.8839C305.902 97.8839 303.49 96.1814 303.49 91.9103C303.49 87.4202 305.902 85.96 305.902 85.96Z" fill="#E6615E" stroke="#333333" stroke-width="1.13161" stroke-linecap="round" stroke-linejoin="round"/>
<path d="M354.72 101.291L310.305 101.291L310.305 84.2568L354.72 84.2568C354.72 84.2568 358 86.6903 358 92.7739C358 99.2052 354.72 101.291 354.72 101.291Z" fill="#1746A2" stroke="#333333" stroke-width="1.13161" stroke-linecap="round" stroke-linejoin="round"/>
<path d="M337.641 123.437L327.338 123.437L327.338 101.293L340.965 101.293C340.965 101.293 338.971 102.628 338.306 105.632C337.622 108.723 337.641 123.437 337.641 123.437Z" fill="#1746A2" stroke="#333333" stroke-width="1.13161" stroke-linecap="round" stroke-linejoin="round"/>
<path d="M322.229 101.291L322.229 103.97C322.229 104.513 322.352 105.051 322.591 105.552C322.831 106.054 323.182 106.51 323.624 106.894C324.067 107.278 324.592 107.582 325.171 107.79C325.749 107.998 326.369 108.105 326.994 108.105L327.339 108.105L327.339 101.307L322.229 101.291Z" fill="#E6615E" stroke="#333333" stroke-width="1.13161" stroke-linecap="round" stroke-linejoin="round"/>
<g clip-path="url(#clip0_1330_299712)">
<path d="M207.203 111.817L212.641 105.392C212.641 105.392 208.96 105.637 204.781 102.101C200.603 98.5639 196.894 91.0155 183.938 84.642L181.999 86.9327C190.416 98.6492 198.472 101.057 202.663 104.604C206.853 108.15 207.203 111.817 207.203 111.817Z" fill="#CCB39B" stroke="#333333" stroke-width="1.13161" stroke-linecap="round" stroke-linejoin="round"/>
<path d="M207.371 111.683L212.537 105.578C213.139 104.867 214.001 104.428 214.935 104.356C215.868 104.284 216.797 104.585 217.516 105.194L229.299 115.166L219.598 126.629L207.815 116.656C207.096 116.047 206.645 115.182 206.562 114.249C206.478 113.316 206.769 112.393 207.371 111.683Z" fill="#FDECCB" stroke="#333333" stroke-width="1.13161" stroke-linecap="round" stroke-linejoin="round"/>
<path d="M227.055 117.816L219.807 111.683" stroke="#333333" stroke-width="1.13161" stroke-linecap="round" stroke-linejoin="round"/>
<path d="M224.447 120.897L217.2 114.764" stroke="#333333" stroke-width="1.13161" stroke-linecap="round" stroke-linejoin="round"/>
<path d="M221.84 123.979L214.593 117.845" stroke="#333333" stroke-width="1.13161" stroke-linecap="round" stroke-linejoin="round"/>
</g>
<circle cx="66" cy="166" r="26.25" fill="#FFD5BE" stroke="#333333" stroke-width="1.5"/>
<rect x="50.3742" y="157.374" width="30.9" height="24.9" rx="4.45" fill="#9B724C" stroke="#333333" stroke-width="1.1"/>
<circle cx="65.7024" cy="164.331" r="15.25" transform="rotate(26.9242 65.7024 164.331)" fill="#F7EADB" stroke="#333333" stroke-width="1.5"/>
<path d="M69.9348 168.874C69.9348 171.348 67.9295 173.353 65.4557 173.353C62.9819 173.353 60.9766 171.348 60.9766 168.874" stroke="#333333" stroke-width="1.2"/>
<path d="M50.3239 161.824C50.7239 150.624 60.8239 147.824 65.8239 147.824C65.8239 149.824 66.3242 153.724 63.8242 155.324C51.3242 163.324 50.0025 170.825 50.3239 161.824Z" fill="#9B724C" stroke="#333333" stroke-width="1.1"/>
<path d="M81.3655 161.824C80.9655 150.624 70.8655 147.824 65.8655 147.824C65.8655 149.824 65.3652 153.724 67.8652 155.324C80.3652 163.324 81.687 170.825 81.3655 161.824Z" fill="#9B724C" stroke="#333333" stroke-width="1.1"/>
<path d="M243.869 90.8464C243.869 89.0235 245.347 87.5458 247.17 87.5458H269.467C272.018 87.5458 274.087 89.6146 274.087 92.1666V118.131C274.087 121.412 271.427 124.072 268.146 124.072H249.81C246.529 124.072 243.869 121.412 243.869 118.131V90.8464Z" fill="#EAEAEA" stroke="#333333" stroke-width="1.32021"/>
<path fill-rule="evenodd" clip-rule="evenodd" d="M240.754 98.4482H243.82V99.7685H241.982C242.18 104.038 243.963 108.092 246.998 111.127C250.221 114.35 254.593 116.161 259.152 116.161C263.71 116.161 268.082 114.35 271.305 111.127C274.34 108.092 276.123 104.038 276.321 99.7685H274.483V98.4482H277.549V98.9736V99.7685H277.532C277.524 99.9439 277.514 100.119 277.502 100.294C277.185 104.69 275.298 108.845 272.16 111.982C268.71 115.433 264.031 117.371 259.152 117.371C254.272 117.371 249.593 115.433 246.143 111.982C243.005 108.845 241.118 104.69 240.802 100.294C240.789 100.119 240.779 99.9439 240.771 99.7685H240.754V98.4482Z" fill="#333333"/>
<path d="M274.261 89.9513C274.261 90.4708 273.971 91.0527 273.253 91.6658C272.538 92.2767 271.463 92.8568 270.078 93.357C267.314 94.3553 263.451 94.9856 259.152 94.9856C254.853 94.9856 250.99 94.3553 248.226 93.357C246.841 92.8568 245.766 92.2767 245.051 91.6658C244.333 91.0527 244.043 90.4708 244.043 89.9513C244.043 89.4317 244.333 88.8499 245.051 88.2368C245.766 87.6258 246.841 87.0457 248.226 86.5456C250.99 85.5472 254.853 84.9169 259.152 84.9169C263.451 84.9169 267.314 85.5472 270.078 86.5456C271.463 87.0457 272.538 87.6258 273.253 88.2368C273.971 88.8499 274.261 89.4317 274.261 89.9513Z" fill="#D1D1D1" stroke="#333333" stroke-width="1.32021"/>
<path d="M258.276 88.6367C253.721 88.6367 244.697 89.5128 244.697 91.7029C244.697 93.8931 252.582 94.7692 258.276 94.7692C264.409 94.7692 273.607 93.5066 273.607 91.7029C273.607 89.5386 263.971 88.6367 258.276 88.6367Z" fill="#188803"/>
<path d="M274.261 89.9513C274.261 90.4708 273.971 91.0527 273.253 91.6658C272.538 92.2767 271.463 92.8568 270.078 93.357C267.314 94.3553 263.451 94.9856 259.152 94.9856C254.853 94.9856 250.99 94.3553 248.226 93.357C246.841 92.8568 245.766 92.2767 245.051 91.6658C244.333 91.0527 244.043 90.4708 244.043 89.9513C244.043 89.4317 244.333 88.8499 245.051 88.2368C245.766 87.6258 246.841 87.0457 248.226 86.5456C250.99 85.5472 254.853 84.9169 259.152 84.9169C263.451 84.9169 267.314 85.5472 270.078 86.5456C271.463 87.0457 272.538 87.6258 273.253 88.2368C273.971 88.8499 274.261 89.4317 274.261 89.9513Z" stroke="#333333" stroke-width="1.32021"/>
<circle cx="66" cy="324.299" r="26.2043" fill="white" stroke="#333333" stroke-width="1.59141"/>
<g clip-path="url(#clip1_1330_299712)">
<path d="M66.8353 312.92L63.9624 314.3L63.3998 313.735L64.7711 310.843L62.6502 312.978L61.7969 312.119L65.4896 308.4L66.6983 309.616L65.3066 312.38L68.0885 311.015L69.2604 312.197L65.5665 315.916L64.7132 315.057L66.8353 312.92Z" fill="black"/>
<path d="M60.3186 313.614L61.0048 315.714L60.9859 315.712L59.003 314.937L57.9715 315.975L61.3981 317.066L62.8373 318.515L63.7753 317.571L62.3282 316.113L61.4103 312.514L60.3186 313.614Z" fill="black"/>
<path fill-rule="evenodd" clip-rule="evenodd" d="M56.1279 317.668C57.2831 316.505 58.8103 316.618 59.8931 317.707C60.9748 318.797 61.0884 320.334 59.9332 321.497C58.778 322.66 57.2508 322.547 56.1691 321.457C55.0853 320.368 54.9739 318.83 56.1279 317.668ZM56.862 318.407C56.2761 318.997 56.4721 319.714 57.1862 320.433C57.9002 321.151 58.6121 321.348 59.198 320.759C59.7839 320.169 59.5879 319.452 58.8738 318.733C58.1598 318.014 57.448 317.817 56.862 318.407Z" fill="black"/>
<path d="M55.307 322.85L57.8201 323.567L56.8141 324.579L53.6204 323.67L54.1707 323.116C54.4403 322.845 54.447 322.413 54.1874 322.151C53.9268 321.889 53.499 321.898 53.2305 322.169L52.6257 322.777L55.6155 325.787L54.6787 326.732L50.9848 323.012L52.8562 321.127L52.8574 321.128C53.4789 320.501 54.4124 320.482 54.9605 321.032C55.4696 321.545 55.5988 322.294 55.3092 322.849L55.307 322.85Z" fill="black"/>
<path d="M49.5957 325.928L50.2262 326.563L51.525 325.253L52.2792 326.012L50.9781 327.322L51.7824 328.131L53.3887 326.513L54.1428 327.27L51.5974 329.832L47.9036 326.114L50.449 323.55L51.202 324.309L49.5957 325.928Z" fill="black"/>
<path d="M48.563 332.889L51.0683 330.367L50.2273 329.52L48.6577 331.1L45.8049 328.227L44.8691 329.17L48.563 332.889Z" fill="black"/>
<path d="M78.0975 328.533L81.7913 324.813L80.8077 323.822L77.1138 327.542L78.0975 328.533Z" fill="black"/>
<path d="M70.3665 314.827L69.736 315.461L71.153 316.888L70.3988 317.647L68.983 316.219L68.1787 317.029L69.9031 318.764L69.1501 319.523L66.4888 316.844L70.1816 313.125L72.844 315.804L72.0898 316.561L70.3665 314.827Z" fill="black"/>
<path d="M76.4365 326.865L73.9324 324.343L77.6251 320.624L78.5609 321.566L75.7091 324.438L77.2776 326.018L76.4365 326.865Z" fill="black"/>
<path d="M83.8822 326.916L82.6981 330.859L85.2468 328.292L86.1246 329.175L82.4319 332.892L81.2733 331.726L82.2833 327.667L79.7617 330.205L78.9095 329.346L82.6012 325.628L83.8822 326.916Z" fill="black"/>
<path d="M73.9446 321.108L73.2328 323.639L72.2269 322.624L73.0145 319.291L73.6817 319.963C73.9513 320.234 74.3802 320.242 74.6397 319.979C74.9004 319.718 74.8904 319.287 74.623 319.016L73.9012 318.291L70.9113 321.302L69.9745 320.358L73.6684 316.638L75.6568 318.639V318.64C76.2784 319.267 76.2984 320.207 75.7515 320.759C75.2424 321.271 74.4971 321.402 73.9468 321.11L73.9446 321.108Z" fill="black"/>
<path d="M49.2637 333.601H81.7356L65.4996 317.253L49.2637 333.601Z" fill="#5AB030"/>
</g>
<mask id="path-49-inside-1_1330_299712" fill="white">
<path fill-rule="evenodd" clip-rule="evenodd" d="M229.716 244C228.611 244 227.716 244.895 227.716 246V271.713L220.003 271.713C218.386 271.713 217.437 273.534 218.365 274.86L233.178 296.038C233.974 297.176 235.66 297.176 236.456 296.038L251.269 274.86C252.196 273.534 251.248 271.713 249.63 271.713L241.825 271.713V246C241.825 244.895 240.93 244 239.825 244H229.716Z"/>
</mask>
<path d="M227.716 271.713L227.716 272.713H228.716V271.713H227.716ZM220.003 271.713L220.003 270.713H220.003V271.713ZM218.365 274.86L219.184 274.287H219.184L218.365 274.86ZM233.178 296.038L233.997 295.465L233.178 296.038ZM236.456 296.038L235.636 295.465L236.456 296.038ZM251.269 274.86L250.45 274.287L251.269 274.86ZM249.63 271.713V272.713V271.713ZM241.825 271.713H240.825V272.713H241.825V271.713ZM228.716 246C228.716 245.448 229.164 245 229.716 245V243C228.059 243 226.716 244.343 226.716 246H228.716ZM228.716 271.713V246H226.716V271.713H228.716ZM220.003 272.713L227.716 272.713L227.716 270.713L220.003 270.713L220.003 272.713ZM219.184 274.287C218.72 273.624 219.195 272.713 220.003 272.713V270.713C217.577 270.713 216.154 273.444 217.545 275.433L219.184 274.287ZM233.997 295.465L219.184 274.287L217.545 275.433L232.358 296.611L233.997 295.465ZM235.636 295.465C235.238 296.034 234.395 296.034 233.997 295.465L232.358 296.611C233.553 298.318 236.081 298.318 237.275 296.611L235.636 295.465ZM250.45 274.287L235.636 295.465L237.275 296.611L252.088 275.433L250.45 274.287ZM249.63 272.713C250.439 272.713 250.913 273.624 250.45 274.287L252.088 275.433C253.479 273.444 252.057 270.713 249.63 270.713V272.713ZM241.825 272.713L249.63 272.713V270.713L241.825 270.713V272.713ZM240.825 246V271.713H242.825V246H240.825ZM239.825 245C240.378 245 240.825 245.448 240.825 246H242.825C242.825 244.343 241.482 243 239.825 243V245ZM229.716 245H239.825V243H229.716V245Z" fill="#464C5C" mask="url(#path-49-inside-1_1330_299712)"/>
<mask id="path-51-inside-2_1330_299712" fill="white">
<path fill-rule="evenodd" clip-rule="evenodd" d="M231.623 247.02C231.07 247.02 230.623 247.467 230.623 248.02V274.85H223.769C222.943 274.85 222.474 275.795 222.972 276.453L234.018 291.052C234.418 291.58 235.213 291.58 235.613 291.052L246.66 276.453C247.158 275.795 246.688 274.85 245.862 274.85H238.915V248.02C238.915 247.467 238.467 247.02 237.915 247.02H231.623Z"/>
</mask>
<path fill-rule="evenodd" clip-rule="evenodd" d="M231.623 247.02C231.07 247.02 230.623 247.467 230.623 248.02V274.85H223.769C222.943 274.85 222.474 275.795 222.972 276.453L234.018 291.052C234.418 291.58 235.213 291.58 235.613 291.052L246.66 276.453C247.158 275.795 246.688 274.85 245.862 274.85H238.915V248.02C238.915 247.467 238.467 247.02 237.915 247.02H231.623Z" fill="#75BAD0"/>
<path d="M230.623 274.85V275.85H231.623V274.85H230.623ZM222.972 276.453L222.175 277.057L222.175 277.057L222.972 276.453ZM234.018 291.052L233.221 291.655L233.221 291.655L234.018 291.052ZM235.613 291.052L236.411 291.655L236.411 291.655L235.613 291.052ZM246.66 276.453L247.457 277.057V277.057L246.66 276.453ZM238.915 274.85H237.915V275.85H238.915V274.85ZM231.623 248.02V248.02V246.02C230.518 246.02 229.623 246.915 229.623 248.02H231.623ZM231.623 274.85V248.02H229.623V274.85H231.623ZM223.769 275.85H230.623V273.85H223.769V275.85ZM223.769 275.85H223.769V273.85C222.117 273.85 221.178 275.739 222.175 277.057L223.769 275.85ZM234.816 290.448L223.769 275.85L222.175 277.057L233.221 291.655L234.816 290.448ZM234.816 290.448H234.816L233.221 291.655C234.021 292.713 235.61 292.713 236.411 291.655L234.816 290.448ZM245.862 275.85L234.816 290.448L236.411 291.655L247.457 277.057L245.862 275.85ZM245.862 275.85L245.862 275.85L247.457 277.057C248.454 275.739 247.514 273.85 245.862 273.85V275.85ZM238.915 275.85H245.862V273.85H238.915V275.85ZM237.915 248.02V274.85H239.915V248.02H237.915ZM237.915 248.02L237.915 248.02H239.915C239.915 246.915 239.02 246.02 237.915 246.02V248.02ZM231.623 248.02H237.915V246.02H231.623V248.02Z" fill="#464C5C" mask="url(#path-51-inside-2_1330_299712)"/>
<defs>
<clipPath id="clip0_1330_299712">
<rect width="16.0693" height="55.8931" fill="white" transform="translate(230.045 115.109) rotate(130.243)"/>
</clipPath>
<clipPath id="clip1_1330_299712">
<rect width="41.2555" height="25.2" fill="white" transform="translate(44.8691 308.4)"/>
</clipPath>
</defs>
</svg>
